<svg version="1.1" id="Layer_1" xmlns="http://www.w3.org/2000/svg" xmlns:xlink="http://www.w3.org/1999/xlink" x="0px" y="0px"
	 width="100%" viewBox="0 0 404 84" enable-background="new 0 0 404 84" xml:space="preserve">
<path fill="#000000" opacity="1.000000" stroke="none" 
	d="
M356.710022,1.291429 
	C361.024536,1.000000 365.049103,1.000000 369.536804,1.000000 
	C371.582947,2.199238 371.752686,3.569926 370.855591,5.358667 
	C368.748260,9.560629 370.162140,13.084921 373.225830,16.217587 
	C375.672577,18.719395 378.294647,21.056515 380.568237,23.718988 
	C383.690552,27.375328 384.042511,30.503708 381.662323,33.074276 
	C378.727173,36.244228 375.577362,35.841618 372.376648,33.482639 
	C375.139099,35.780621 378.053406,36.221931 380.971375,33.867996 
	C384.159607,31.295998 383.669067,28.061909 382.269806,24.781895 
	C381.259796,22.414339 379.451141,20.723610 377.510986,19.093576 
	C374.847137,16.855492 372.043274,14.715905 370.650574,11.316278 
	C369.663757,8.907417 369.881592,6.712963 371.712891,4.858931 
	C373.426788,3.123786 375.827545,2.237495 377.855377,3.451107 
	C380.747742,5.182131 381.326172,2.974789 382.753723,1.247050 
	C385.370575,1.000000 387.741119,1.000000 390.555847,1.000000 
	C392.715515,2.613241 394.567780,2.627424 396.760010,1.235987 
	C397.000000,1.000000 397.500000,1.000000 397.750000,1.000000 
	C399.406525,2.298960 399.851837,4.473344 402.739075,4.280127 
	C405.419922,4.100720 404.110687,6.944343 404.786499,8.725323 
	C405.000000,33.051472 404.955566,57.103130 405.059113,81.154160 
	C405.071320,83.993958 404.803589,85.416145 401.372681,85.091751 
	C397.262604,84.703156 393.087738,85.000000 388.470459,85.000000 
	C386.568634,82.738823 384.138184,82.685860 382.052124,82.954414 
	C377.723175,83.511703 376.617828,81.342766 376.531311,77.650864 
	C376.372345,70.866287 376.805908,64.066666 376.007965,57.290428 
	C375.211456,64.198204 375.649445,71.133499 375.476501,78.052353 
	C375.418793,80.361023 375.675598,82.782265 373.265747,84.732819 
	C372.250000,85.000000 371.500000,85.000000 370.375000,85.000000 
	C367.832397,83.232811 366.811310,80.928535 366.260651,78.186996 
	C364.919434,71.509613 363.683350,64.801704 361.887146,58.226376 
	C361.484375,56.751797 361.634460,54.300339 359.469116,54.419884 
	C357.529633,54.526962 357.436646,56.870361 357.098999,58.405727 
	C355.564697,65.382622 354.107300,72.378044 352.694489,79.379921 
	C352.243744,81.613914 351.195465,83.191109 349.248474,84.752419 
	C346.958344,85.000000 344.916656,85.000000 342.437500,85.000000 
	C339.908051,83.488029 339.475769,81.342224 339.504425,78.916893 
	C339.602417,70.631180 339.316437,62.342754 339.673187,54.058098 
	C339.713196,53.129036 340.258057,52.071995 339.057648,51.365013 
	C337.482758,52.045410 338.343475,53.342308 338.374725,54.355930 
	C338.630341,62.642681 338.444855,70.930153 338.476074,79.217033 
	C338.483734,81.244324 338.259094,83.159340 336.245056,84.753922 
	C333.299988,85.000000 330.599976,85.000000 327.449982,85.000000 
	C324.699493,83.328506 324.518097,80.898865 324.503876,78.339363 
	C324.465210,71.388985 324.619202,64.435394 323.975708,57.475227 
	C323.441223,64.174866 323.554474,70.893883 323.474426,77.607277 
	C323.445251,80.056351 323.821564,82.662605 321.258057,84.740524 
	C315.977905,85.000000 310.955811,85.000000 305.466858,85.000000 
	C300.479401,79.712540 302.575623,73.602982 303.243225,67.850365 
	C303.501923,65.621239 306.391205,66.117973 308.475494,66.051636 
	C313.005280,65.907448 315.794312,62.227455 315.318298,57.525208 
	C314.850647,52.905258 311.771851,50.322777 307.230591,50.603580 
	C302.831879,50.875568 301.748291,53.878151 301.602783,57.471596 
	C301.326477,64.297256 301.581238,71.131706 301.468536,77.961281 
	C301.430450,80.269112 301.670776,82.697098 299.288574,84.709953 
	C298.555542,85.000000 298.111115,85.000000 297.333313,85.000000 
	C294.667877,84.024895 293.630188,82.194229 293.000183,79.785446 
	C291.288666,73.241837 290.359497,66.537544 288.729309,59.982380 
	C288.411041,58.702606 288.183258,57.397003 287.674469,56.169678 
	C287.353302,55.394947 286.982880,54.556995 286.081024,54.440372 
	C284.820038,54.277313 284.369293,55.328053 284.082245,56.259483 
	C282.911896,60.056751 282.357605,63.998894 281.456604,67.861084 
	C280.517334,71.887444 279.801453,75.961792 278.875549,79.992653 
	C278.405579,82.038879 277.398865,83.577713 275.252808,84.754715 
	C273.611115,85.000000 272.222198,85.000000 270.416656,85.000000 
	C267.449615,83.365921 268.963043,81.213974 269.641815,78.629066 
	C267.432709,81.600845 265.498108,83.914085 262.016693,82.768211 
	C258.428955,81.587326 256.896667,78.610939 256.665863,75.190369 
	C256.274780,69.395256 256.286255,63.562069 256.667480,57.765503 
	C256.868805,54.703892 258.062195,51.821815 261.464752,50.910225 
	C264.655212,50.055447 267.393127,50.857483 269.075623,53.755093 
	C264.605896,48.688324 258.512024,49.534939 256.737762,56.050110 
	C254.619934,63.826836 254.589615,71.797325 257.294586,79.579514 
	C257.859039,81.203445 259.480164,82.779366 257.246643,84.752075 
	C251.977905,85.000000 246.955811,85.000000 241.466858,85.000000 
	C238.773590,83.670845 237.659256,81.766281 237.027039,79.175491 
	C235.347397,72.292297 234.377853,65.262123 232.548309,58.418644 
	C232.137894,56.883430 232.174973,54.603798 230.191513,54.521584 
	C228.095505,54.434692 228.097336,56.779266 227.696426,58.277027 
	C225.816208,65.301323 224.944717,72.550880 223.016495,79.568802 
	C222.445267,81.647797 222.039291,83.816368 219.284058,84.788048 
	C218.250000,85.000000 217.500000,85.000000 216.375000,85.000000 
	C213.699448,83.328514 213.526642,80.898422 213.502182,78.339409 
	C213.435730,71.389214 213.684433,64.434441 212.950882,57.475452 
	C212.441177,64.174782 212.554474,70.893822 212.474442,77.607231 
	C212.445251,80.056313 212.821594,82.662582 210.258041,84.740524 
	C207.629440,85.000000 205.258896,85.000000 202.444168,85.000000 
	C200.095047,83.542732 200.788147,81.967178 201.534317,80.145782 
	C204.618652,72.616814 203.926743,64.766411 202.773392,57.043961 
	C202.079666,52.398983 198.552643,50.221489 194.114166,50.612907 
	C190.184143,50.959488 188.675888,52.978172 188.543610,58.538345 
	C188.389343,65.023315 188.550354,71.512688 188.470413,77.999458 
	C188.442001,80.304665 188.676788,82.727600 186.282166,84.716400 
	C185.250000,85.000000 184.500000,85.000000 183.375000,85.000000 
	C181.214676,82.653465 178.758698,82.896820 176.212372,83.084145 
	C173.684875,83.270088 171.721985,82.268715 171.683029,79.407806 
	C171.568527,71.000908 171.822479,62.593224 171.736618,54.184666 
	C171.725006,53.047302 172.328110,52.029408 173.295059,51.127853 
	C170.669479,52.986298 170.532455,55.650993 170.513321,58.340664 
	C170.464951,65.137787 170.515228,71.935158 170.485367,78.732437 
	C170.475876,80.893761 170.440338,83.027473 168.244354,84.754478 
	C166.611115,85.000000 165.222214,85.000000 163.416656,85.000000 
	C160.903976,83.452110 160.514099,81.257507 160.512039,78.828270 
	C160.506805,72.677330 160.565430,66.525589 160.470551,60.375778 
	C160.443878,58.646282 160.973038,56.689461 158.931992,55.028580 
	C156.357697,59.831123 155.360092,64.979088 153.876602,69.956955 
	C153.236176,72.105927 153.879471,75.489243 150.802002,75.746010 
	C146.929596,76.069107 148.146408,72.164139 147.456360,70.119888 
	C145.879837,65.449532 145.676498,60.334267 142.664154,55.350697 
	C140.946716,59.301289 140.719727,62.977085 140.548416,66.610657 
	C140.352814,70.759285 140.530594,74.921158 140.465469,79.077019 
	C140.433823,81.096504 140.321762,83.084229 138.263962,84.734604 
	C131.312347,85.000000 124.624710,85.000000 117.468536,85.000000 
	C113.993813,83.082497 112.960907,79.879761 111.737823,76.826408 
	C103.063370,55.171169 94.064110,33.647999 85.392548,11.991697 
	C84.524025,9.822659 83.512817,7.720366 82.456749,5.640145 
	C81.756737,4.261277 81.050133,2.919151 82.732346,1.280385 
	C101.687561,1.000000 120.375122,1.000000 139.531342,1.000000 
	C143.702194,3.895777 142.794449,8.048141 142.247925,11.621119 
	C141.408508,17.109030 141.641022,22.564926 141.488800,28.038317 
	C141.541870,24.717892 141.397522,21.393433 141.611984,18.076601 
	C141.733124,16.203119 141.955658,14.158191 144.425293,14.106731 
	C146.709030,14.059144 146.718338,15.925875 147.061417,17.658598 
	C147.698898,20.878284 148.595230,24.050983 149.419815,27.232262 
	C149.686615,28.261532 149.697784,29.751247 151.295776,29.923092 
	C153.185883,30.126345 153.549179,28.482080 153.917740,27.315479 
	C154.831436,24.423353 155.267487,21.398489 156.029160,18.452993 
	C156.459641,16.788204 156.504181,14.974845 158.775604,15.134378 
	C160.938416,15.286282 161.225769,17.095036 161.363770,18.802078 
	C161.606216,21.801382 161.458038,24.810743 161.501556,27.815479 
	C161.515808,20.993601 161.480820,14.171659 161.519867,7.349787 
	C161.532303,5.177466 161.487183,2.984640 163.753815,1.246713 
	C167.361282,1.000000 170.722580,1.000000 174.541931,1.000000 
	C177.098770,2.511664 177.503922,4.665024 177.499146,7.088809 
	C177.485748,13.886669 177.463806,20.684961 177.512878,27.482870 
	C177.532272,30.169310 177.667267,32.832638 180.110764,34.753269 
	C177.899414,32.081169 178.108734,28.832354 178.645737,26.009882 
	C179.647446,20.744963 178.504959,15.626588 178.520477,10.447326 
	C178.541443,3.446733 178.779144,3.103713 185.480759,2.926381 
	C187.114563,2.883148 188.436432,2.742292 189.754852,1.244528 
	C193.030594,1.000000 196.061188,1.000000 199.545898,1.000000 
	C202.340317,2.628082 202.499847,5.042522 202.502365,7.593602 
	C202.509720,15.026527 202.417084,22.462921 202.879425,29.904806 
	C203.793182,27.556719 203.334366,25.089369 203.656097,22.702055 
	C203.917694,20.761015 204.540161,19.151087 206.851807,18.919128 
	C208.880890,18.715525 210.322250,19.399065 211.340576,21.263338 
	C212.778122,23.895111 213.148041,26.899237 214.489380,29.857864 
	C214.391663,27.547821 213.596466,25.702181 213.089310,23.792492 
	C212.465210,21.442375 212.476639,19.214344 213.927399,17.129816 
	C216.678513,13.176919 216.855362,9.121416 214.263641,5.030704 
	C213.444794,3.738279 213.295395,2.596286 214.754089,1.247509 
	C220.354935,1.000000 225.709854,1.000000 231.532394,1.000000 
	C234.183014,2.490845 233.414566,4.385197 232.826630,6.347281 
	C230.673157,13.534155 231.329910,20.887514 231.891174,28.178717 
	C232.165009,31.735920 234.186050,34.503895 237.953384,35.237526 
	C241.199219,35.869602 243.920074,34.989182 245.260880,31.579258 
	C243.909073,35.091328 241.101196,35.830990 237.846848,35.163742 
	C234.989426,34.577877 232.957657,32.633541 232.746506,29.713667 
	C232.253830,22.900558 232.288177,16.055717 232.729797,9.239490 
	C232.911255,6.438891 234.360931,4.062934 237.323181,3.326090 
	C240.635330,2.502208 243.161621,3.931756 245.304626,6.984007 
	C245.294357,4.939495 243.440399,3.039688 245.754333,1.246821 
	C250.024551,1.000000 254.049088,1.000000 258.536804,1.000000 
	C261.102325,2.554034 261.457672,4.784179 261.473969,7.191376 
	C261.507721,12.167758 261.478882,17.144041 261.500519,22.120300 
	C261.508453,23.944880 261.478729,25.774168 261.758484,27.583191 
	C262.484711,32.279243 265.174408,35.178909 268.856110,35.270889 
	C272.746368,35.368080 275.749512,32.388092 276.240204,27.409403 
	C276.875427,20.964590 276.361938,14.479034 276.529724,8.013784 
	C276.589386,5.715609 276.341644,3.299604 278.710022,1.291429 
	C282.361298,1.000000 285.722565,1.000000 289.541931,1.000000 
	C292.355164,2.632296 292.494019,5.060581 292.503296,7.616961 
	C292.530273,15.049623 292.370544,22.488224 292.638062,31.129892 
	C293.901215,27.696974 293.323517,25.351938 293.608154,23.083029 
	C293.846161,21.185478 294.208435,19.377872 296.483002,18.971119 
	C298.880402,18.542406 300.821503,19.340342 301.834961,21.610352 
	C302.918976,24.038391 303.319824,26.715256 304.502899,29.189878 
	C302.567932,23.976118 301.961853,19.020889 305.413055,14.005775 
	C307.066101,11.603703 306.180573,8.502450 304.785248,5.891522 
	C304.009949,4.440712 302.735809,3.080359 304.754578,1.246970 
	C309.689240,1.000000 314.378510,1.000000 319.533875,1.000000 
	C322.300568,2.671466 322.473389,5.101575 322.497803,7.660563 
	C322.564270,14.610737 322.315582,21.565495 323.049042,28.524458 
	C323.558777,21.825140 323.445526,15.106115 323.525574,8.392721 
	C323.554749,5.943644 323.178406,3.337390 325.741943,1.259469 
	C329.361298,1.000000 332.722565,1.000000 336.541931,1.000000 
	C339.102325,2.554034 339.457672,4.784179 339.473969,7.191376 
	C339.507721,12.167758 339.478882,17.144041 339.500519,22.120300 
	C339.508453,23.944880 339.478729,25.774166 339.758453,27.583193 
	C340.484680,32.279247 343.174408,35.178909 346.856110,35.270889 
	C350.746368,35.368080 353.749512,32.388092 354.240204,27.409403 
	C354.875427,20.964590 354.361908,14.479033 354.529724,8.013784 
	C354.589355,5.715609 354.341644,3.299604 356.710022,1.291429 
z"/>
<path fill="#58264F" opacity="1.000000" stroke="none" 
	d="
M82.545891,1.000000 
	C94.721161,26.272865 104.359360,52.411083 115.015015,78.126564 
	C115.829712,80.092682 116.327888,82.189964 116.986595,84.613144 
	C113.307091,85.000000 109.614182,85.000000 105.460632,85.000000 
	C101.748695,83.691429 100.191872,81.324463 99.045113,77.912453 
	C96.981903,71.773682 94.564903,65.724991 92.571983,60.740345 
	C94.551498,66.488251 97.337669,73.133522 99.695480,79.948822 
	C100.844521,83.270180 100.305130,83.850800 96.906601,83.554161 
	C92.645248,83.182228 88.360794,83.483109 84.619583,80.765839 
	C81.503006,78.502258 79.833199,75.592819 79.172775,71.778702 
	C78.299934,66.737755 77.538177,61.523739 72.837234,57.769001 
	C71.747414,56.744381 70.893898,55.981686 69.391846,55.622902 
	C67.046722,55.715069 66.863457,53.065369 64.683975,52.867653 
	C63.225788,52.564980 63.022820,51.458679 62.092133,50.583061 
	C59.220978,49.181675 58.106506,46.268120 55.307564,44.778416 
	C53.081429,41.368347 51.678192,37.887131 49.535648,34.811604 
	C48.297100,33.033722 46.922535,31.666388 44.217976,31.701677 
	C40.712341,29.146610 38.855846,30.352003 37.722359,34.084793 
	C37.699158,36.118290 36.523827,37.421288 36.085838,39.340729 
	C35.747578,41.647480 33.997112,42.982922 33.745991,45.335758 
	C33.614841,46.202370 33.519238,46.696995 33.307713,47.560120 
	C27.558765,57.643230 22.655388,67.715195 18.768576,78.258324 
	C17.747883,81.027000 16.299017,83.255219 13.275570,84.744781 
	C10.252512,85.000000 7.458835,84.684128 4.768868,85.077492 
	C1.155935,85.605812 0.414185,84.060143 1.000000,80.499962 
	C5.247273,63.204998 13.028909,47.736012 19.208599,31.668211 
	C22.188875,23.919203 25.526690,16.302250 28.577345,8.575255 
	C29.772135,5.548977 31.500458,3.046838 34.720680,1.254632 
	C37.700012,1.000000 40.400028,1.000000 43.550018,1.000000 
	C47.170612,2.451798 48.820068,5.263714 50.680122,8.027593 
	C55.558666,15.276685 62.636536,15.042994 67.228172,7.616323 
	C68.671608,5.281662 69.751900,2.675262 72.753265,1.243313 
	C76.030594,1.000000 79.061188,1.000000 82.545891,1.000000 
z"/>
<path fill="#000000" opacity="1.000000" stroke="none" 
	d="
M34.531342,1.000000 
	C27.686792,16.825623 21.589808,33.157814 14.869268,49.229889 
	C10.566214,59.520580 7.066389,70.159882 1.364790,80.004982 
	C1.000000,54.765141 1.047624,29.530058 0.929343,4.295753 
	C0.916958,1.653465 1.282552,0.839745 4.181486,0.908851 
	C14.136951,1.146175 24.101559,1.000000 34.531342,1.000000 
z"/>
<path fill="#000000" opacity="1.000000" stroke="none" 
	d="
M13.468657,85.000000 
	C20.468960,72.903923 24.066309,59.061512 30.679832,46.261131 
	C32.680428,46.566082 33.095013,47.752174 32.567913,49.726051 
	C31.987391,52.382854 30.815037,54.370941 29.825693,56.812309 
	C28.698725,62.868679 26.304163,68.159386 24.699860,73.692322 
	C24.302546,75.062584 23.315287,76.705147 24.738026,77.840179 
	C26.301466,79.087463 27.873348,77.898178 29.252527,77.037819 
	C32.389076,75.081215 33.790672,71.934181 34.890053,68.590347 
	C35.507599,66.712044 36.118801,64.831177 36.940865,62.646500 
	C38.530380,59.936359 38.221378,56.930378 40.048309,54.265232 
	C40.930656,52.739899 40.757484,51.121773 42.513153,50.119812 
	C43.210358,49.960026 43.501663,49.964832 44.193504,50.148693 
	C46.157444,52.498459 46.453022,54.783859 45.135201,57.588028 
	C45.005295,58.612259 44.921356,59.257313 44.946274,59.902058 
	C45.012127,61.605743 43.528530,63.973541 45.301487,64.851166 
	C47.281193,65.831146 48.535290,63.429462 50.086853,61.856476 
	C51.524555,59.185188 54.637482,58.725685 56.004593,55.959709 
	C56.713326,55.068424 57.408813,54.857628 58.484650,54.625488 
	C59.100586,54.590870 59.348305,54.600082 59.958229,54.696686 
	C62.401783,55.804634 62.889225,58.297718 65.022827,59.750000 
	C66.717751,60.983147 66.683296,63.596260 69.489441,63.568436 
	C70.698463,64.367508 71.410713,65.749001 72.736076,64.947426 
	C73.695343,64.367264 73.423676,63.164932 73.264847,62.194489 
	C72.838402,59.589027 71.946297,56.978539 73.699326,54.140800 
	C74.824318,50.652760 75.312813,53.642323 75.458580,54.060150 
	C77.364571,59.523308 79.175644,65.019646 81.002838,70.510216 
	C83.820244,78.976318 89.102089,82.412308 98.709076,81.698410 
	C95.553253,72.271065 92.430542,62.942612 89.307823,53.614162 
	C89.570107,53.497757 89.832390,53.381355 90.094681,53.264950 
	C92.728943,59.334332 95.256752,65.452927 98.032753,71.456779 
	C100.078445,75.881149 100.942200,80.984550 105.025543,84.644615 
	C74.645775,85.000000 44.291542,85.000000 13.468657,85.000000 
z"/>
<path fill="#3A3B3A" opacity="1.000000" stroke="none" 
	d="
M163.562500,1.000000 
	C163.997330,11.661353 164.037903,22.323063 163.949997,32.983711 
	C163.935120,34.786644 164.743073,37.516113 161.718613,37.677208 
	C158.217163,37.863701 159.104782,34.874958 159.052170,32.933899 
	C158.918900,28.016983 159.007950,23.094042 158.300613,18.124653 
	C156.894333,23.536846 155.453445,28.940426 154.102402,34.366375 
	C153.685669,36.039955 153.452118,37.859055 151.166702,37.601482 
	C149.233932,37.383644 149.290802,35.661976 148.948563,34.186546 
	C147.638641,28.539230 146.212036,22.918978 143.995300,17.268919 
	C143.995300,22.386707 144.095764,27.507486 143.943604,32.620747 
	C143.886368,34.544170 144.949280,37.572479 141.589767,37.677113 
	C138.156906,37.784031 139.176620,34.744022 139.035477,32.803120 
	C138.284866,22.480888 140.034653,12.229362 140.000092,1.461908 
	C141.714355,1.000000 143.428711,1.000000 145.571533,1.000000 
	C151.465729,6.632181 150.707596,14.003098 151.651535,19.419136 
	C152.478516,14.257706 152.259262,7.304803 156.755524,1.244862 
	C159.041672,1.000000 161.083328,1.000000 163.562500,1.000000 
z"/>
<path fill="#3A3B3A" opacity="1.000000" stroke="none" 
	d="
M138.416656,85.000000 
	C137.600754,74.016403 138.428574,63.071037 139.023422,52.118362 
	C139.123322,50.279057 138.983765,48.393375 141.641953,48.107510 
	C144.471146,47.803249 144.930176,49.709389 145.384048,51.721897 
	C146.985611,58.823597 148.579712,65.926987 150.426880,74.142769 
	C153.065247,67.919716 153.468658,62.183121 154.960617,56.757938 
	C155.399536,55.161869 155.695297,53.525166 156.025391,51.900726 
	C156.505997,49.535797 157.538773,47.884518 160.340546,48.115604 
	C163.389923,48.367119 162.950714,50.676552 162.960754,52.577644 
	C163.016205,63.072430 162.994705,73.567627 162.999786,84.531342 
	C161.611115,85.000000 160.222214,85.000000 158.416656,85.000000 
	C153.905533,81.687294 157.015808,77.431938 156.573669,74.050858 
	C155.860413,77.371643 157.033859,81.604691 153.239868,84.758743 
	C151.611115,85.000000 150.222214,85.000000 148.416656,85.000000 
	C144.825775,82.637421 145.301575,79.006126 144.765930,75.722404 
	C144.500702,74.096573 144.526428,72.431114 144.047623,70.626396 
	C145.746460,79.560188 145.672531,81.256416 143.245117,84.754593 
	C141.611115,85.000000 140.222214,85.000000 138.416656,85.000000 
z"/>
<path fill="#3A3B3A" opacity="1.000000" stroke="none" 
	d="
M186.466858,85.000000 
	C186.000626,74.510643 186.127136,64.019012 185.937302,53.533108 
	C185.865631,49.574417 186.977600,47.927475 191.252457,47.916870 
	C203.236938,47.887150 205.986404,50.392445 206.000275,62.364964 
	C206.003555,65.195427 205.827286,68.038895 206.038559,70.853493 
	C206.416382,75.887222 205.257294,80.376060 201.999435,84.637512 
	C196.977905,85.000000 191.955811,85.000000 186.466858,85.000000 
z"/>
<path fill="#3A3B3A" opacity="1.000000" stroke="none" 
	d="
M214.533875,1.000000 
	C216.846710,4.420002 219.766602,7.443258 218.977356,11.835528 
	C218.802002,12.811461 219.045929,14.152729 218.484467,14.724370 
	C212.961792,20.347374 216.688370,26.092625 218.066742,31.822886 
	C218.570709,33.917950 220.494888,36.634220 217.072784,37.680347 
	C213.527100,38.764252 213.224106,35.635361 212.559845,33.226681 
	C211.766418,30.349504 210.902344,27.490332 209.998291,24.645788 
	C209.556885,23.256903 209.164261,21.251852 207.335953,21.639950 
	C205.505386,22.028528 206.086472,24.108334 206.036606,25.522285 
	C205.936844,28.351038 206.008972,31.185392 205.965393,34.016747 
	C205.936234,35.910622 205.858688,37.764130 203.203674,37.866165 
	C200.294037,37.977985 200.029770,36.079781 200.027603,33.921047 
	C200.016907,23.259806 200.009308,12.598559 200.000305,1.468657 
	C204.689255,1.000000 209.378510,1.000000 214.533875,1.000000 
z"/>
<path fill="#3A3B3A" opacity="1.000000" stroke="none" 
	d="
M304.533875,1.000000 
	C306.853363,4.422533 309.748871,7.461542 308.973328,11.849942 
	C308.800690,12.826805 309.022949,14.153338 308.460052,14.737906 
	C303.029877,20.377108 306.675690,26.118036 308.076172,31.850662 
	C308.587646,33.944229 310.491486,36.669048 307.046356,37.670048 
	C303.868927,38.593269 303.391632,35.600910 302.705414,33.418861 
	C301.760193,30.413216 300.866089,27.389259 300.048981,24.346577 
	C299.694244,23.025578 299.497498,21.449213 297.819153,21.529831 
	C295.586609,21.637074 296.107666,23.643229 296.052032,25.006586 
	C295.929657,28.001568 296.012115,31.004330 295.965607,34.003212 
	C295.936279,35.892223 295.874146,37.756664 293.215759,37.866043 
	C290.310150,37.985600 290.029236,36.097412 290.027191,33.931442 
	C290.017151,23.266733 290.009155,12.602024 290.000183,1.468657 
	C294.689240,1.000000 299.378510,1.000000 304.533875,1.000000 
z"/>
<path fill="#3A3B3A" opacity="1.000000" stroke="none" 
	d="
M278.571533,1.000000 
	C278.997864,9.809001 279.050598,18.618460 278.977020,27.426865 
	C278.912537,35.151443 276.164764,37.998276 269.029175,37.993336 
	C262.223145,37.988625 259.074921,34.709644 259.019470,27.366951 
	C258.955444,18.890837 259.000458,10.413896 258.999084,1.468657 
	C260.714355,1.000000 262.428711,1.000000 264.571533,1.000000 
	C267.088715,2.536191 267.497284,4.713554 267.490204,7.136817 
	C267.477142,11.601785 267.439392,16.068087 267.522736,20.532152 
	C267.555664,22.296103 267.182007,24.199564 268.850800,25.929453 
	C270.745056,24.813322 270.431183,22.914045 270.467316,21.263464 
	C270.568634,16.634308 270.469818,12.002516 270.526276,7.372063 
	C270.552551,5.215620 270.514893,3.029084 272.742126,1.259351 
	C274.714355,1.000000 276.428711,1.000000 278.571533,1.000000 
z"/>
<path fill="#3A3B3A" opacity="1.000000" stroke="none" 
	d="
M356.571533,1.000000 
	C356.997772,9.809568 357.047424,18.619547 356.977753,27.428581 
	C356.916687,35.146919 354.168976,37.997765 347.031921,37.993343 
	C340.224976,37.989124 337.075073,34.709827 337.019531,27.368587 
	C336.955414,18.891928 337.000458,10.414441 336.999054,1.468657 
	C338.714355,1.000000 340.428711,1.000000 342.571533,1.000000 
	C345.088715,2.536191 345.497284,4.713554 345.490204,7.136817 
	C345.477142,11.601785 345.439392,16.068087 345.522705,20.532154 
	C345.555634,22.296103 345.182007,24.199564 346.850800,25.929453 
	C348.745056,24.813322 348.431183,22.914045 348.467316,21.263464 
	C348.568634,16.634308 348.469818,12.002516 348.526276,7.372063 
	C348.552551,5.215620 348.514893,3.029084 350.742126,1.259351 
	C352.714355,1.000000 354.428711,1.000000 356.571533,1.000000 
z"/>
<path fill="#3A3B3A" opacity="1.000000" stroke="none" 
	d="
M245.535355,1.000000 
	C246.932755,4.286419 249.374588,7.084803 249.000580,10.810286 
	C248.795273,12.855308 248.991043,14.908087 245.977631,14.889923 
	C243.373199,14.874228 243.053650,13.231001 243.017899,11.241493 
	C243.005920,10.576080 242.950226,9.911576 242.927948,9.246207 
	C242.844284,6.746934 241.139618,5.614822 239.051575,5.501988 
	C236.996964,5.390962 235.508972,7.000088 235.337845,8.896680 
	C234.709534,15.860783 234.706985,22.864851 235.334076,29.822910 
	C235.530167,31.998850 237.536346,32.997898 239.833633,32.866634 
	C242.194733,32.731735 242.888412,31.229015 242.959732,29.164215 
	C243.005676,27.834450 243.042267,26.500765 243.178024,25.178591 
	C243.355179,23.453266 244.604034,23.137686 246.056992,23.134758 
	C247.552582,23.131742 248.471054,23.633150 248.889404,25.274220 
	C250.131439,30.146246 246.811569,36.444729 242.171967,37.728203 
	C236.166855,39.389416 230.056320,36.535347 229.566452,30.609776 
	C228.768478,20.956957 227.100250,11.012068 232.000885,1.377356 
	C236.356903,1.000000 240.713806,1.000000 245.535355,1.000000 
z"/>
<path fill="#3A3B3A" opacity="1.000000" stroke="none" 
	d="
M257.463196,85.000000 
	C251.407822,75.487579 252.215149,65.272301 254.075470,55.094250 
	C255.160828,49.156097 259.537842,46.947845 266.283142,48.115166 
	C271.091583,48.947300 273.585724,52.977104 272.976990,58.675243 
	C272.774963,60.566463 272.307343,61.856300 270.080444,61.886467 
	C267.935242,61.915531 267.152649,60.869518 267.034424,58.861172 
	C266.884308,56.311443 267.520721,52.947613 263.371124,53.177158 
	C259.237335,53.405834 259.112488,56.761997 259.041748,59.797947 
	C258.937042,64.292000 259.030762,68.790398 259.007996,73.286781 
	C258.999420,74.981232 259.201233,76.611969 260.116089,78.077034 
	C261.014130,79.515152 262.005829,81.050972 263.979309,80.617287 
	C265.756165,80.226830 266.737732,78.861732 266.904297,77.012260 
	C266.978943,76.183754 267.028290,75.349487 267.024872,74.518097 
	C267.015991,72.375313 267.708466,71.015251 270.197266,71.110123 
	C272.861786,71.211693 272.864532,73.025078 272.978912,74.931572 
	C273.189087,78.436241 271.703644,81.372314 270.004333,84.627388 
	C265.975464,85.000000 261.950897,85.000000 257.463196,85.000000 
z"/>
<path fill="#3A3B3A" opacity="1.000000" stroke="none" 
	d="
M349.428467,85.000000 
	C351.361694,73.660973 353.750732,62.327522 356.062164,50.978252 
	C356.526581,48.697773 357.924561,48.101696 359.993011,48.077015 
	C362.150787,48.051277 362.697510,49.257126 363.078064,51.137634 
	C365.309387,62.163204 367.666962,73.163231 369.990967,84.585938 
	C368.285645,85.000000 366.571289,85.000000 364.428467,85.000000 
	C363.545502,84.512283 364.100433,85.156570 363.658905,84.657227 
	C358.803650,79.166237 359.625305,80.167915 355.241699,84.758598 
	C353.285645,85.000000 351.571289,85.000000 349.428467,85.000000 
z"/>
<path fill="#3A3B3A" opacity="1.000000" stroke="none" 
	d="
M382.536804,1.000000 
	C383.707642,3.013949 384.357971,5.050460 385.139313,7.035400 
	C385.898926,8.965285 386.117432,10.378201 383.571838,11.264196 
	C381.106537,12.122249 380.127960,11.415592 379.960968,9.009382 
	C379.804749,6.757949 378.159729,5.840364 376.345428,5.473993 
	C375.022888,5.206926 373.706940,5.946060 373.097809,7.270226 
	C372.244537,9.124907 372.816498,10.915367 374.019379,12.351354 
	C375.610931,14.251292 377.447876,15.894712 379.504059,17.369059 
	C383.274384,20.072514 385.874756,23.631660 385.982269,28.554222 
	C386.103882,34.123001 383.509949,37.430096 378.582916,37.941803 
	C372.675964,38.555290 368.426605,35.737049 367.358704,30.547018 
	C366.995697,28.782780 366.961304,27.034575 368.934540,26.381044 
	C370.992371,25.699503 372.523285,26.542717 372.953094,28.830568 
	C373.359253,30.992382 374.428070,32.539490 376.751495,32.814762 
	C378.449127,33.015896 379.697479,32.092144 380.381622,30.682426 
	C381.440399,28.500834 380.046753,26.821712 378.733551,25.357674 
	C376.738770,23.133739 374.600403,21.031086 372.436218,18.968008 
	C365.777130,12.620132 365.317047,9.516823 369.997375,1.369467 
	C374.024536,1.000000 378.049103,1.000000 382.536804,1.000000 
z"/>
<path fill="#3A3B3A" opacity="1.000000" stroke="none" 
	d="
M219.428467,85.000000 
	C221.302933,74.858017 223.604095,64.715630 225.911667,54.574703 
	C226.131638,53.608002 226.368652,52.643925 226.638000,51.689991 
	C227.124237,49.967903 227.271729,48.128662 229.878967,48.055782 
	C232.657288,47.978115 233.290039,49.928970 233.713623,51.796192 
	C235.906860,61.464111 237.938141,71.168716 240.038300,80.857849 
	C240.282852,81.986130 240.604126,83.097794 240.944916,84.608582 
	C239.285645,85.000000 237.571289,85.000000 235.428467,85.000000 
	C234.503372,84.555244 235.152695,85.093727 234.652557,84.652931 
	C230.020325,80.570351 230.020325,80.570351 225.237335,84.762932 
	C223.285645,85.000000 221.571289,85.000000 219.428467,85.000000 
z"/>
<path fill="#3A3B3A" opacity="1.000000" stroke="none" 
	d="
M275.428467,85.000000 
	C277.332184,74.347031 279.623322,63.684765 282.031158,53.048923 
	C282.513580,50.918030 282.535675,48.278915 285.832062,48.085175 
	C289.421295,47.874222 289.245941,50.887207 289.709900,52.842533 
	C292.188080,63.287148 294.410095,73.792549 296.860352,84.638458 
	C295.285645,85.000000 293.571289,85.000000 291.428467,85.000000 
	C290.657257,84.647324 290.203613,84.387047 289.912415,84.014206 
	C286.822540,80.058243 284.077423,81.197197 281.228729,84.770264 
	C279.285645,85.000000 277.571289,85.000000 275.428467,85.000000 
z"/>
<path fill="#3A3B3A" opacity="1.000000" stroke="none" 
	d="
M299.428467,85.000000 
	C299.002350,74.675514 299.236938,64.343590 298.906433,54.029766 
	C298.747833,49.079769 300.575500,47.361660 305.248688,47.980659 
	C306.395172,48.132519 307.579498,47.970737 308.742279,48.031887 
	C315.435944,48.383904 317.911407,50.986656 317.995331,57.721073 
	C318.090942,65.390678 316.349976,67.616203 309.195374,67.937279 
	C305.830597,68.088280 304.890381,69.545937 304.985779,72.575340 
	C305.106232,76.401421 305.005768,80.234444 305.000305,84.532242 
	C303.285645,85.000000 301.571289,85.000000 299.428467,85.000000 
z"/>
<path fill="#3A3B3A" opacity="1.000000" stroke="none" 
	d="
M189.533875,1.000000 
	C190.263031,4.072587 188.697479,5.269321 185.810883,4.983797 
	C182.077271,4.614491 180.589020,6.358696 181.013199,9.951433 
	C181.363266,12.916322 179.509323,17.159702 185.205093,17.043247 
	C186.604492,17.014635 188.555130,16.809164 188.574356,19.002541 
	C188.593948,21.239799 186.611557,20.985756 185.231155,20.953508 
	C179.544067,20.820641 181.352478,25.045025 181.011032,28.022606 
	C180.601654,31.592693 182.026627,33.305782 185.790451,33.052567 
	C187.530502,32.935505 189.805771,32.748665 189.753311,35.531490 
	C189.701462,38.281517 187.445236,37.951042 185.691605,37.957867 
	C172.977539,38.007362 175.175720,38.837315 175.024506,27.907160 
	C174.904770,19.252085 174.999664,10.594040 174.999634,1.468657 
	C179.689255,1.000000 184.378510,1.000000 189.533875,1.000000 
z"/>
<path fill="#3A3B3A" opacity="1.000000" stroke="none" 
	d="
M168.466125,85.000000 
	C168.003525,74.376228 168.130768,63.750294 167.945740,53.129803 
	C167.877853,49.231903 169.260986,47.621490 173.143585,47.977432 
	C175.119415,48.158566 177.126373,47.969479 179.115891,48.041443 
	C180.754578,48.100716 182.653015,47.960873 182.761719,50.377773 
	C182.869644,52.777592 181.077454,53.130970 179.387070,52.925610 
	C174.154968,52.289978 173.843185,55.404522 173.949432,59.348366 
	C174.028366,62.278854 174.639908,64.205147 178.063644,64.073021 
	C179.212875,64.028679 180.521790,64.247612 180.619019,65.816162 
	C180.736435,67.710358 179.283829,67.848671 177.931183,67.962006 
	C171.249390,68.521812 174.717880,73.647705 174.105042,76.788948 
	C173.371902,80.546738 176.001694,81.158951 179.017395,81.022537 
	C181.226440,80.922615 183.047226,81.399857 182.981293,84.598015 
	C178.310745,85.000000 173.621490,85.000000 168.466125,85.000000 
z"/>
<path fill="#000000" opacity="1.000000" stroke="none" 
	d="
M72.531342,1.000000 
	C72.315956,4.636572 70.377800,7.784248 68.443871,10.751538 
	C64.059021,17.479342 54.005238,19.447165 48.037926,9.022860 
	C46.647472,6.593878 45.279507,4.152025 43.950600,1.358047 
	C53.354229,1.000000 62.708454,1.000000 72.531342,1.000000 
z"/>
<path fill="#3A3B3A" opacity="1.000000" stroke="none" 
	d="
M336.428467,85.000000 
	C335.996338,76.037834 335.982025,67.075653 335.995728,58.113514 
	C335.999695,55.528389 336.106567,52.980068 332.416473,52.885956 
	C330.798218,52.844688 330.099640,51.810696 330.238007,50.205463 
	C330.389984,48.442238 331.664612,48.097771 333.060089,48.082527 
	C337.041992,48.039021 341.025024,48.040916 345.006927,48.085785 
	C346.423401,48.101742 347.654297,48.511364 347.773895,50.267796 
	C347.884460,51.892086 347.122467,52.860752 345.524841,52.899349 
	C342.220062,52.979195 341.987427,55.146053 341.997131,57.674183 
	C342.030945,66.470222 342.003662,75.266495 341.999817,84.531342 
	C340.285645,85.000000 338.571289,85.000000 336.428467,85.000000 
z"/>
<path fill="#3A3B3A" opacity="1.000000" stroke="none" 
	d="
M373.466125,85.000000 
	C373.000641,75.040977 372.857452,65.078400 373.103607,55.125446 
	C373.164825,52.650402 371.106140,48.149921 376.117096,48.302246 
	C380.979950,48.450073 378.772217,52.871803 378.888947,55.367672 
	C379.214264,62.323956 379.110931,69.307137 378.968536,76.275452 
	C378.900574,79.601006 379.991028,81.266098 383.523376,81.031334 
	C385.740662,80.883965 388.035889,80.971588 387.981354,84.597900 
	C383.310760,85.000000 378.621490,85.000000 373.466125,85.000000 
z"/>
<path fill="#000000" opacity="1.000000" stroke="none" 
	d="
M272.555847,1.000000 
	C272.997009,9.611844 272.983246,18.223705 272.997192,26.835524 
	C273.001740,29.649521 272.703583,32.578835 269.212952,32.713825 
	C265.334473,32.863811 265.002869,29.780590 265.004974,26.779177 
	C265.010742,18.498558 265.005219,10.217931 265.002075,1.468654 
	C267.370575,1.000000 269.741119,1.000000 272.555847,1.000000 
z"/>
<path fill="#000000" opacity="1.000000" stroke="none" 
	d="
M350.555847,1.000000 
	C350.997009,9.611794 350.983246,18.223606 350.997162,26.835375 
	C351.001709,29.649294 350.703766,32.578815 347.213135,32.713730 
	C343.334442,32.863647 343.004211,29.780916 343.006409,26.779018 
	C343.012390,18.498453 343.005798,10.217878 343.002075,1.468654 
	C345.370575,1.000000 347.741119,1.000000 350.555847,1.000000 
z"/>
<path fill="#3A3B3A" opacity="1.000000" stroke="none" 
	d="
M321.428467,85.000000 
	C321.005096,74.232582 320.986969,63.465065 321.035461,52.697845 
	C321.044830,50.616825 320.637970,48.109100 324.021271,48.138992 
	C327.387848,48.168736 326.959167,50.683128 326.969238,52.754425 
	C327.019897,63.190315 326.997498,73.626564 327.000366,84.531342 
	C325.285645,85.000000 323.571289,85.000000 321.428467,85.000000 
z"/>
<path fill="#3A3B3A" opacity="1.000000" stroke="none" 
	d="
M210.428467,85.000000 
	C210.005096,74.232582 209.986969,63.465065 210.035461,52.697842 
	C210.044861,50.616821 209.637924,48.109116 213.021240,48.139004 
	C216.387833,48.168743 215.959152,50.683117 215.969208,52.754425 
	C216.019928,63.190315 215.997528,73.626564 216.000397,84.531342 
	C214.285645,85.000000 212.571289,85.000000 210.428467,85.000000 
z"/>
<path fill="#3A3B3A" opacity="1.000000" stroke="none" 
	d="
M325.571533,1.000000 
	C325.997101,11.666187 326.030487,22.332617 325.959137,32.998348 
	C325.945709,35.009048 326.609314,37.688232 323.218109,37.837231 
	C319.476166,38.001640 320.045197,35.156048 320.032715,32.935776 
	C319.974487,22.603220 320.002350,12.270181 319.999725,1.468657 
	C321.714355,1.000000 323.428711,1.000000 325.571533,1.000000 
z"/>
<path fill="#000000" opacity="1.000000" stroke="none" 
	d="
M156.541931,1.000000 
	C156.746857,9.657307 153.676041,17.718786 151.099167,26.150936 
	C149.405075,18.042946 147.710968,9.934958 146.008438,1.413484 
	C149.361282,1.000000 152.722580,1.000000 156.541931,1.000000 
z"/>
<path fill="#000000" opacity="1.000000" stroke="none" 
	d="
M225.454102,85.000000 
	C225.355469,83.044876 225.781097,81.099266 226.048004,79.132126 
	C226.357605,76.850510 227.737518,76.094055 229.847137,76.063087 
	C232.151276,76.029259 233.690460,76.768013 233.983871,79.329895 
	C234.171539,80.968498 234.623367,82.576843 234.978394,84.599380 
	C231.969406,85.000000 228.938812,85.000000 225.454102,85.000000 
z"/>
<path fill="#000000" opacity="1.000000" stroke="none" 
	d="
M281.454102,85.000000 
	C281.325500,83.227318 281.871613,81.461311 281.925598,79.680397 
	C282.009766,76.902679 283.290344,75.935959 285.957123,76.021950 
	C288.592468,76.106918 289.870453,77.218040 290.018127,79.886360 
	C290.098572,81.339668 290.584045,82.770554 290.943420,84.605774 
	C287.969391,85.000000 284.938812,85.000000 281.454102,85.000000 
z"/>
<path fill="#000000" opacity="1.000000" stroke="none" 
	d="
M355.449982,85.000000 
	C355.067047,83.200211 355.057465,81.428734 355.611115,79.641617 
	C356.231140,77.640137 356.694580,76.047607 359.366364,75.988655 
	C362.189056,75.926384 363.180145,77.535957 363.669861,79.740616 
	C363.986206,81.164932 363.898987,82.678894 363.996338,84.576340 
	C361.299988,85.000000 358.599976,85.000000 355.449982,85.000000 
z"/>
<path fill="#000000" opacity="1.000000" stroke="none" 
	d="
M143.416656,85.000000 
	C143.000000,78.049194 143.000000,71.098381 143.000000,64.147575 
	C145.189087,70.756142 147.712769,77.198479 148.051971,84.574234 
	C146.611115,85.000000 145.222214,85.000000 143.416656,85.000000 
z"/>
<path fill="#000000" opacity="1.000000" stroke="none" 
	d="
M153.416656,85.000000 
	C153.787781,78.602463 155.419693,72.396416 158.000214,66.206772 
	C158.000214,72.158859 158.000214,78.110954 158.000107,84.531525 
	C156.611115,85.000000 155.222214,85.000000 153.416656,85.000000 
z"/>
<path fill="#3A3B3A" opacity="1.000000" stroke="none" 
	d="
M405.000000,8.505266 
	C403.804291,9.465032 404.917908,4.700660 402.101318,7.893164 
	C400.751587,9.423057 398.571136,7.881139 398.070099,5.738007 
	C397.776672,4.482951 398.006378,3.105585 398.000366,1.391619 
	C398.444458,1.000000 398.888885,1.000000 399.666687,1.000000 
	C401.598175,2.042575 401.653656,3.626044 401.539795,4.470637 
	C401.565216,3.961346 401.171326,2.522247 402.736145,1.260280 
	C403.835571,1.183897 405.250793,0.266413 405.040680,2.323823 
	C404.848938,4.201199 405.000000,6.113579 405.000000,8.505266 
z"/>
<path fill="#3A3B3A" opacity="1.000000" stroke="none" 
	d="
M396.571533,1.000000 
	C395.747803,3.154048 394.816315,5.443374 394.315186,8.952775 
	C392.598511,6.046706 393.013733,3.328531 391.081116,1.351975 
	C392.714355,1.000000 394.428711,1.000000 396.571533,1.000000 
z"/>
<path fill="#000000" opacity="1.000000" stroke="none" 
	d="
M402.625000,1.000000 
	C402.919861,2.305021 402.402222,3.423675 401.368042,4.665794 
	C400.890381,3.540649 400.478760,2.570992 400.033569,1.300668 
	C400.750000,1.000000 401.500000,1.000000 402.625000,1.000000 
z"/>
<path fill="#421E3B" opacity="1.000000" stroke="none" 
	d="
M44.171326,51.295715 
	C43.872459,51.036255 43.466370,51.069996 43.264000,51.093628 
	C38.733299,50.731930 35.062805,49.025005 32.087303,45.354252 
	C32.142044,43.065876 32.817921,41.298855 33.900593,39.297081 
	C36.560444,36.069866 39.001144,37.776325 41.508186,39.015911 
	C45.257221,40.869587 48.314564,44.251431 53.321327,44.217159 
	C54.883884,44.449989 55.443344,45.508789 56.649548,46.401375 
	C58.691978,49.268845 59.769123,52.062435 59.340343,55.551205 
	C58.574303,56.175007 58.092495,56.482082 57.356472,56.920425 
	C51.112099,59.309082 48.128265,54.657364 44.171326,51.295715 
z"/>
<path fill="#AB733E" opacity="1.000000" stroke="none" 
	d="
M73.473640,53.836731 
	C75.649887,58.442558 75.984070,63.367687 77.025269,68.137779 
	C77.693527,71.199318 76.394760,71.707764 74.028542,70.455612 
	C72.022186,69.393890 70.207428,67.970085 68.135513,66.409424 
	C65.661415,62.003765 66.545837,57.949455 68.678574,53.645897 
	C70.484451,53.535328 71.782806,53.686630 73.473640,53.836731 
z"/>
<path fill="#3B1B35" opacity="1.000000" stroke="none" 
	d="
M53.354206,45.519020 
	C49.239532,47.379040 46.472370,44.871178 43.553654,43.286152 
	C40.694668,41.733559 38.134785,39.607533 34.423103,39.038456 
	C34.559753,37.499825 35.057472,36.017384 35.742462,34.257935 
	C38.681175,30.526798 41.311996,32.772549 43.732311,34.341850 
	C45.509121,35.493912 47.032898,36.941357 49.792465,36.433029 
	C52.271393,39.052013 54.262657,41.575218 53.354206,45.519020 
z"/>
<path fill="#351930" opacity="1.000000" stroke="none" 
	d="
M49.277649,37.462185 
	C46.532734,39.332893 44.648880,37.644604 42.670208,36.479290 
	C40.793533,35.374058 38.874821,34.390167 36.305008,34.034866 
	C36.192944,32.681736 36.279274,31.314268 36.749847,30.095114 
	C38.841915,24.675037 40.527905,24.359667 44.884140,28.756931 
	C47.263950,31.338377 49.790054,33.460526 49.277649,37.462185 
z"/>
<path fill="#482041" opacity="1.000000" stroke="none" 
	d="
M31.803892,45.171455 
	C36.090675,45.809299 39.910492,47.184101 42.896446,50.813049 
	C42.761379,52.210968 42.461128,53.304668 41.997780,54.703667 
	C37.475559,57.305706 33.345844,55.774166 30.341778,50.437851 
	C30.431055,48.962780 30.694536,47.861179 30.964298,46.416702 
	C31.176123,45.818005 31.394955,45.574100 31.803892,45.171455 
z"/>
<path fill="#D1AD5B" opacity="1.000000" stroke="none" 
	d="
M49.326950,38.044689 
	C47.773331,35.109596 46.473843,32.420536 45.124863,29.381954 
	C49.338192,30.676210 51.132866,34.706886 53.526909,38.066650 
	C54.558723,39.514690 55.588181,40.925571 56.934780,42.526752 
	C57.957176,44.845669 59.274918,46.944508 55.568443,48.041348 
	C54.599720,47.346329 54.087650,46.749382 53.308178,46.025482 
	C51.887543,43.362595 50.734310,40.826660 49.326950,38.044689 
z"/>
<path fill="#B37F43" opacity="1.000000" stroke="none" 
	d="
M68.937714,53.222351 
	C68.800301,57.340267 68.414505,61.296505 67.995926,65.682549 
	C66.394592,64.873680 64.643051,63.801479 63.935257,61.398651 
	C63.640911,57.833042 61.743855,54.571869 64.560883,51.147163 
	C66.254143,51.618309 67.471733,52.339493 68.937714,53.222351 
z"/>
<path fill="#C69B51" opacity="1.000000" stroke="none" 
	d="
M55.188644,48.277988 
	C56.166603,46.656372 56.775608,45.181408 57.023819,43.182819 
	C58.868351,44.729328 60.661472,46.625584 62.648968,48.784286 
	C62.395088,51.535957 64.385300,54.707340 60.344994,56.187576 
	C59.881725,56.053883 59.466053,55.976418 59.261082,55.922176 
	C58.556526,53.050388 56.364357,51.117157 55.188644,48.277988 
z"/>
<path fill="#BC8C4A" opacity="1.000000" stroke="none" 
	d="
M59.932251,56.388840 
	C60.716103,53.887886 61.550484,51.721889 62.614101,49.301315 
	C63.469444,49.499893 64.095543,49.953049 64.879097,50.651665 
	C64.832283,54.044163 65.469505,57.262070 64.065323,60.691757 
	C62.343658,59.833420 60.659065,58.732601 59.932251,56.388840 
z"/>
<path fill="#57264F" opacity="1.000000" stroke="none" 
	d="
M39.144817,62.662338 
	C37.279751,71.092720 35.514648,79.094925 25.922215,81.530830 
	C23.979588,82.024147 21.708035,82.750366 20.277384,81.293289 
	C19.105169,80.099426 20.461582,78.195366 20.968353,76.664032 
	C23.088053,70.258804 25.236456,63.863071 27.628927,57.206696 
	C32.012032,54.204994 36.966366,56.509964 39.144817,62.662338 
z"/>
<path fill="#482041" opacity="1.000000" stroke="none" 
	d="
M43.902184,51.439747 
	C48.797321,51.330257 52.212887,54.959358 56.784554,56.893761 
	C56.555058,59.688358 54.335537,61.014935 52.352051,62.919632 
	C48.487236,63.787075 45.769566,62.300793 43.325859,59.366928 
	C42.497070,56.533615 44.178833,54.291626 43.902184,51.439747 
z"/>
<path fill="#502348" opacity="1.000000" stroke="none" 
	d="
M39.327095,62.851368 
	C36.114586,60.177406 32.704266,58.044739 28.256096,57.005917 
	C27.826094,54.631374 29.288429,52.830730 30.077642,50.417313 
	C33.736557,51.857632 37.237808,53.807281 41.490070,54.913734 
	C41.085205,57.540169 40.335724,60.071384 39.327095,62.851368 
z"/>
<path fill="#53244B" opacity="1.000000" stroke="none" 
	d="
M42.979362,59.371044 
	C46.497608,58.969353 49.144630,60.513538 51.807076,62.857197 
	C49.946281,65.647560 47.854832,68.259926 44.720383,69.654854 
	C43.707706,70.105537 42.638611,71.291046 41.544170,70.570061 
	C40.235394,69.707886 40.906208,68.085632 41.091995,66.896294 
	C41.470528,64.473030 42.206722,62.105640 42.979362,59.371044 
z"/>
<path fill="#000000" opacity="1.000000" stroke="none" 
	d="
M195.455063,80.606796 
	C192.402161,81.081009 192.039001,79.346664 192.036011,77.327415 
	C192.025909,70.494865 192.025726,63.662285 192.032700,56.829727 
	C192.034714,54.853699 192.342682,53.147133 194.927643,53.089703 
	C197.401535,53.034737 199.601334,53.948795 199.711746,56.431187 
	C200.007446,63.079342 199.932892,69.750702 199.786911,76.408051 
	C199.736786,78.693909 197.666809,79.614662 195.455063,80.606796 
z"/>
<path fill="#000000" opacity="1.000000" stroke="none" 
	d="
M206.281281,14.279925 
	C206.114304,12.726254 205.891846,11.548207 206.044708,10.421064 
	C206.303375,8.513710 204.977905,5.510215 208.286163,5.327097 
	C211.184906,5.166646 212.640274,7.327008 212.903275,10.127839 
	C213.158890,12.849856 212.507812,15.126258 209.430008,15.780206 
	C208.275818,16.025442 207.104431,15.873672 206.281281,14.279925 
z"/>
<path fill="#000000" opacity="1.000000" stroke="none" 
	d="
M298.026978,15.772888 
	C294.639069,13.025496 296.248505,9.664279 296.371155,6.567426 
	C296.416138,5.432158 297.634521,5.102131 298.660248,5.272353 
	C300.307190,5.545656 301.832458,6.160379 302.615417,7.805215 
	C304.261841,11.264146 302.506348,14.608348 298.026978,15.772888 
z"/>
<path fill="#000000" opacity="1.000000" stroke="none" 
	d="
M360.281250,62.591568 
	C360.818634,64.807556 361.290039,66.719818 361.641205,68.653908 
	C361.840057,69.749062 361.446381,70.607658 360.184875,70.789360 
	C358.756561,70.995094 358.095917,70.460938 357.975739,68.935738 
	C357.762329,66.227257 358.431305,63.659382 359.357971,61.231541 
	C359.604889,60.584644 359.835876,61.938229 360.281250,62.591568 
z"/>
<path fill="#000000" opacity="1.000000" stroke="none" 
	d="
M230.574585,61.750435 
	C231.134491,63.907764 231.608276,65.809959 231.833679,67.741150 
	C231.983337,69.023506 231.974167,70.565834 230.102722,70.644676 
	C228.212082,70.724335 227.724930,69.102661 228.344269,67.981010 
	C229.486191,65.912910 227.767563,63.016888 230.574585,61.750435 
z"/>
<path fill="#000000" opacity="1.000000" stroke="none" 
	d="
M287.656281,69.522514 
	C284.809265,71.684204 283.961975,70.207573 284.182617,67.720161 
	C284.350586,65.826355 285.033081,63.978180 285.688965,61.276398 
	C287.420715,64.208046 287.218750,66.794449 287.656281,69.522514 
z"/>
<path fill="#000000" opacity="1.000000" stroke="none" 
	d="
M307.103149,53.195526 
	C312.347534,53.846836 314.544037,58.185539 311.884766,61.800278 
	C310.712463,63.393757 309.104034,64.069168 307.155487,63.789383 
	C304.819977,63.454029 304.945648,61.532684 305.078552,59.969547 
	C305.273163,57.680698 303.922638,54.943279 307.103149,53.195526 
z"/>
</svg>
